<?xml version="1.0" encoding="UTF-8"?>
<svg width="33px" height="33px" viewBox="0 0 33 33" version="1.1" xmlns="http://www.w3.org/2000/svg" xmlns:xlink="http://www.w3.org/1999/xlink">
    <title>facebook</title>
    <g id="Page-1" stroke="none" stroke-width="1" fill="none" fill-rule="evenodd">
        <g id="Search-Open" transform="translate(-659.000000, -3183.000000)">
            <g id="Footer" transform="translate(0.000000, 3121.000000)">
                <g id="facebook" transform="translate(659.000000, 62.000000)">
                    <rect id="Rectangle" x="0" y="0" width="32.9141421" height="32.6301963"></rect>
                    <ellipse id="Oval" stroke="#9B9B9B" stroke-width="2" cx="16.457071" cy="16.3150981" rx="15.457071" ry="15.3150981"></ellipse>
                    <path d="M17.4405349,25.9558379 L13.7919544,25.9558379 L13.7919544,17.4264146 L11.9687789,17.4264146 L11.9687789,14.4874615 L13.7919544,14.4874615 L13.7919544,12.7230131 C13.7919544,10.3255594 14.8208697,8.89914443 17.7459767,8.89914443 L20.1805932,8.89914443 L20.1805932,11.8391741 L18.6589579,11.8391741 C17.5202396,11.8391741 17.4449939,12.249874 17.4449939,13.0163702 L17.4399775,14.4874615 L20.1973145,14.4874615 L19.874594,17.4264146 L17.4399775,17.4264146 L17.4399775,25.9558379 L17.4405349,25.9558379 Z" id="Shape" fill="#9B9B9B"></path>
                </g>
            </g>
        </g>
    </g>
</svg>