<?xml version="1.0" encoding="UTF-8"?>
<svg width="34px" height="33px" viewBox="0 0 34 33" version="1.1" xmlns="http://www.w3.org/2000/svg" xmlns:xlink="http://www.w3.org/1999/xlink">
    <title>Instagram</title>
    <g id="Page-1" stroke="none" stroke-width="1" fill="none" fill-rule="evenodd">
        <g id="Search-Open" transform="translate(-748.000000, -3183.000000)">
            <g id="Footer" transform="translate(0.000000, 3121.000000)">
                <g id="Social" transform="translate(659.000000, 62.000000)">
                    <g id="Instagram" transform="translate(89.000000, 0.000000)">
                        <g id="instagram" transform="translate(0.765842, 0.000000)">
                            <rect id="Rectangle" x="0" y="0" width="32.9141421" height="32.6301963"></rect>
                            <ellipse id="Oval" stroke="#9B9B9B" stroke-width="2" cx="16.457071" cy="16.3150981" rx="15.457071" ry="15.3150981"></ellipse>
                            <path d="M16.4570547,9.62740748 C18.6541791,9.62740748 18.914407,9.63569713 19.7820728,9.67494344 C20.5843469,9.71124303 21.0200417,9.84413647 21.3100258,9.95582006 C21.6940799,10.1038033 21.9682224,10.2806059 22.2561487,10.5660483 C22.544075,10.8514908 22.7224162,11.1232682 22.8716545,11.5040092 C22.9843426,11.7914916 23.1183925,12.2234277 23.1550079,13.0187483 C23.1945958,13.8789613 23.2029575,14.1369442 23.2029575,16.3151143 C23.2029575,18.4932844 23.1945958,18.7512673 23.1550079,19.611448 C23.1183925,20.406801 22.9843426,20.838737 22.8716545,21.1262194 C22.7224162,21.5069604 22.544075,21.7787379 22.2561487,22.0641803 C21.9682224,22.3496227 21.6940799,22.5264254 21.3100258,22.6743762 C21.0200417,22.7860922 20.5843469,22.9189856 19.7820728,22.9552852 C18.9145376,22.9945315 18.6543097,23.0028212 16.4570547,23.0028212 C14.2597997,23.0028212 13.9995718,22.9945315 13.1320366,22.9552852 C12.3297625,22.9189856 11.8940678,22.7860922 11.6041163,22.6743762 C11.2200295,22.5264254 10.9458871,22.3496227 10.6579607,22.0641803 C10.3700344,21.7787379 10.1916932,21.5069604 10.042455,21.1262194 C9.92976684,20.838737 9.79571697,20.406801 9.7591015,19.6114804 C9.71951367,18.7512673 9.71115189,18.4932844 9.71115189,16.3151143 C9.71115189,14.1369442 9.71951367,13.8789613 9.7591015,13.0187807 C9.79571697,12.2234277 9.92976684,11.7914916 10.042455,11.5040092 C10.1916932,11.1232682 10.3700344,10.8514908 10.6579607,10.5660483 C10.9458871,10.2806059 11.2200295,10.1038033 11.6041163,9.95582006 C11.8940678,9.84413647 12.3297625,9.71124303 13.1320039,9.67494344 C13.9997024,9.63569713 14.2599303,9.62740748 16.4570547,9.62740748 M17.4233676,8.15842846 C18.8018078,8.16152119 19.1182963,8.17355629 19.8496531,8.20663933 C20.7255174,8.24627422 21.3236463,8.3841544 21.8470745,8.58582602 C22.3881734,8.79429774 22.8470591,9.07323148 23.3045075,9.52673358 C23.7619559,9.98023567 24.0433169,10.4351626 24.2536028,10.9715935 C24.4570293,11.4905061 24.5961093,12.0834751 24.6360891,12.9517835 C24.66946,13.6768309 24.6815999,13.9905891 24.6847195,15.3571377 L24.685397,15.8001501 C24.6855408,15.9593248 24.6856066,16.1304915 24.6856066,16.3151143 L24.6855557,16.5821395 C24.6855213,16.6679058 24.6854689,16.7504912 24.685397,16.8300786 L24.6847195,17.2730909 C24.6815999,18.6396395 24.66946,18.9533977 24.6360891,19.6784452 C24.5961093,20.5467535 24.4570293,21.1397225 24.2536028,21.6586351 C24.0433169,22.1950661 23.7619559,22.649993 23.3045075,23.1034951 C22.8470591,23.5569972 22.3881734,23.8359309 21.8470745,24.0444026 C21.3236463,24.2460742 20.7255174,24.3839544 19.8496531,24.4235893 C19.1182963,24.4566723 18.8018078,24.468685 17.4233676,24.4717702 L16.9765002,24.4724401 C16.8159403,24.4725822 16.6432841,24.4726472 16.4570547,24.4726472 L16.1877061,24.4725969 C16.1011935,24.4725629 16.0178896,24.4725111 15.9376099,24.4724401 L15.4907441,24.4717702 C14.1123107,24.468685 13.7958404,24.4566723 13.0644564,24.4235893 C12.188592,24.3839544 11.5904631,24.2460742 11.0670349,24.0444026 C10.525936,23.8359309 10.0670504,23.5569972 9.60960193,23.1034951 C9.15215348,22.649993 8.87079248,22.1950337 8.66050665,21.6586351 C8.45708009,21.1397225 8.31800009,20.5467535 8.27802031,19.6784452 C8.24464938,18.9533977 8.23253223,18.6396395 8.22942015,17.2730909 L8.22942015,15.3571377 C8.23253223,13.9905891 8.24464938,13.6768309 8.27802031,12.9517835 C8.31800009,12.0834751 8.45708009,11.4905061 8.66050665,10.9715935 C8.87079248,10.4351626 9.15215348,9.98023567 9.60960193,9.52673358 C10.0670504,9.07323148 10.525936,8.79429774 11.0670349,8.58582602 C11.5904631,8.3841544 12.188592,8.24627422 13.0644564,8.20663933 C13.7958404,8.17355629 14.1123107,8.16152119 15.4907441,8.15842846 Z M16.4733975,12.1392099 C14.1380425,12.1392099 12.2448445,14.0160756 12.2448445,16.3312837 C12.2448445,18.6464919 14.1380425,20.5233576 16.4733975,20.5233576 C18.8087525,20.5233576 20.7019505,18.6464919 20.7019505,16.3312837 C20.7019505,14.0160756 18.8087525,12.1392099 16.4733975,12.1392099 Z M16.4733975,13.6101056 C17.9893222,13.6101056 19.2182551,14.8284367 19.2182551,16.3312837 C19.2182551,17.8341308 17.9893222,19.0524619 16.4733975,19.0524619 C14.9574728,19.0524619 13.7285399,17.8341308 13.7285399,16.3312837 C13.7285399,14.8284367 14.9574728,13.6101056 16.4733975,13.6101056 Z M20.8325784,10.9738458 C20.291562,10.9738458 19.8529746,11.4086174 19.8529746,11.9449665 C19.8529746,12.4813155 20.291562,12.9161194 20.8325784,12.9161194 C21.3735947,12.9161194 21.8121497,12.4813155 21.8121497,11.9449665 C21.8121497,11.4086174 21.3735947,10.9738458 20.8325784,10.9738458 Z" id="Shape" fill="#9B9B9B"></path>
                        </g>
                    </g>
                </g>
            </g>
        </g>
    </g>
</svg>