<?xml version="1.0" encoding="UTF-8"?>
<svg width="100px" height="30px" viewBox="0 0 100 30" version="1.1" xmlns="http://www.w3.org/2000/svg" xmlns:xlink="http://www.w3.org/1999/xlink">
    <title>Logo</title>
    <g id="Page-1" stroke="none" stroke-width="1" fill="none" fill-rule="evenodd">
        <g id="Home-Preview" transform="translate(-1260.000000, -782.000000)" fill-rule="nonzero">
            <g id="Footer" transform="translate(1168.000000, 782.000000)">
                <g id="Logo" transform="translate(92.000000, 0.000000)">
                    <g id="VINTERRE" transform="translate(28.947368, 9.686610)">
                        <path d="M6.02089535,11.4478114 L9.77447621,0 L7.43891479,0 L5.03510644,8.36570837 L4.90619559,8.97112147 L4.86069764,8.97112147 L4.72420379,8.34212084 L2.33556142,0 L0,0 L3.74599787,11.4478114 L6.02089535,11.4478114 Z M13.2095714,11.4478114 L13.2095714,0 L10.9953379,0 L10.9953379,11.4478114 L13.2095714,11.4478114 Z M17.6152896,11.4478114 L17.6152896,3.73469123 L17.6607875,3.72682873 L22.1120036,11.4478114 L24.3262372,11.4478114 L24.3262372,0 L22.1120036,0 L22.1120036,7.70525771 L22.0665056,7.71312021 L17.6152896,0 L15.401056,0 L15.401056,11.4478114 L17.6152896,11.4478114 Z" id="VIN" fill="#4A4A4A"></path>
                        <path d="M30.7111161,11.4478114 L30.7111161,1.21868872 L34.3509521,1.21868872 L34.3509521,0 L25.6229287,0 L25.6229287,1.21868872 L29.2172668,1.21868872 L29.2172668,11.4478114 L30.7111161,11.4478114 Z M42.7225748,11.4478114 L42.7225748,10.2369852 L37.4144807,10.2369852 L37.4144807,6.14061864 L41.9491097,6.14061864 L41.9491097,4.92192992 L37.4144807,4.92192992 L37.4144807,1.21868872 L42.6391619,1.21868872 L42.6391619,0 L35.9206314,0 L35.9206314,11.4478114 L42.7225748,11.4478114 Z M45.9832612,11.4478114 L45.9832612,6.48656899 L48.5387294,6.48656899 C49.1251474,6.48656899 49.5927653,6.67526918 49.9415829,7.05266955 C50.2904005,7.43006993 50.4648093,7.92802876 50.4648093,8.54654605 L50.4648093,8.54654605 L50.4648093,9.59225959 C50.4648093,9.95917663 50.4926136,10.3156103 50.5482222,10.6615607 C50.6038308,11.007511 50.730214,11.2695946 50.9273718,11.4478114 L50.9273718,11.4478114 L52.4667191,11.4478114 L52.4667191,11.2591113 C52.279672,11.0808944 52.1482334,10.8502609 52.0724035,10.5672106 C51.9965736,10.2841603 51.9586587,9.9644183 51.9586587,9.60798461 L51.9586587,9.60798461 L51.9586587,8.53082103 C51.9586587,7.85464535 51.8259563,7.28723437 51.5605516,6.82858808 C51.2951469,6.36994179 50.8591249,6.03840604 50.2524855,5.83398083 C50.8186822,5.57713891 51.2496489,5.23118856 51.5453856,4.7961298 C51.8411223,4.36107103 51.9889906,3.85000802 51.9889906,3.26294076 C51.9889906,2.20412304 51.670505,1.39690556 51.0335337,0.841288341 C50.3965624,0.285671119 49.4739651,0.00786250786 48.2657417,0.00786250786 L48.2657417,0.00786250786 L44.4894119,0.00786250786 L44.4894119,11.4478114 L45.9832612,11.4478114 Z M48.1140819,5.26788027 L45.9832612,5.26788027 L45.9832612,1.21868872 L48.2657417,1.21868872 C49.0290962,1.21868872 49.5915014,1.39559515 49.9529574,1.749408 C50.3144133,2.10322085 50.4951413,2.6024901 50.4951413,3.24721575 C50.4951413,3.9286331 50.309358,4.43576485 49.9377914,4.76861102 C49.5662248,5.10145718 48.9583216,5.26788027 48.1140819,5.26788027 L48.1140819,5.26788027 Z M55.8638993,11.4478114 L55.8638993,6.48656899 L58.4193675,6.48656899 C59.0057855,6.48656899 59.4734034,6.67526918 59.822221,7.05266955 C60.1710386,7.43006993 60.3454474,7.92802876 60.3454474,8.54654605 L60.3454474,8.54654605 L60.3454474,9.59225959 C60.3454474,9.95917663 60.3732517,10.3156103 60.4288603,10.6615607 C60.4844689,11.007511 60.6108521,11.2695946 60.8080099,11.4478114 L60.8080099,11.4478114 L62.3473572,11.4478114 L62.3473572,11.2591113 C62.1603101,11.0808944 62.0288715,10.8502609 61.9530416,10.5672106 C61.8772117,10.2841603 61.8392967,9.9644183 61.8392967,9.60798461 L61.8392967,9.60798461 L61.8392967,8.53082103 C61.8392967,7.85464535 61.7065944,7.28723437 61.4411897,6.82858808 C61.175785,6.36994179 60.739763,6.03840604 60.1331236,5.83398083 C60.6993203,5.57713891 61.130287,5.23118856 61.4260237,4.7961298 C61.7217604,4.36107103 61.8696287,3.85000802 61.8696287,3.26294076 C61.8696287,2.20412304 61.5511431,1.39690556 60.9141718,0.841288341 C60.2772005,0.285671119 59.3546032,0.00786250786 58.1463798,0.00786250786 L58.1463798,0.00786250786 L54.37005,0.00786250786 L54.37005,11.4478114 L55.8638993,11.4478114 Z M57.99472,5.26788027 L55.8638993,5.26788027 L55.8638993,1.21868872 L58.1463798,1.21868872 C58.9097343,1.21868872 59.4721395,1.39559515 59.8335955,1.749408 C60.1950514,2.10322085 60.3757794,2.6024901 60.3757794,3.24721575 C60.3757794,3.9286331 60.1899961,4.43576485 59.8184295,4.76861102 C59.4468629,5.10145718 58.8389597,5.26788027 57.99472,5.26788027 L57.99472,5.26788027 Z M71.0526316,11.4478114 L71.0526316,10.2369852 L65.7445374,10.2369852 L65.7445374,6.14061864 L70.2791664,6.14061864 L70.2791664,4.92192992 L65.7445374,4.92192992 L65.7445374,1.21868872 L70.9692187,1.21868872 L70.9692187,0 L64.2506881,0 L64.2506881,11.4478114 L71.0526316,11.4478114 Z" id="TERRE" fill="#878787"></path>
                    </g>
                    <path d="M19.402967,4.49206701 C17.0335828,4.49536617 15.1136304,6.43756291 15.110369,8.83439846 C15.104401,8.94312256 15.104401,9.0520979 15.110369,9.160822 C14.8663487,9.23697245 14.6303472,9.33728162 14.4057909,9.46029313 C13.8875428,8.68160473 13.052751,8.17756212 12.1292337,8.08572063 L12.1292337,8.08572063 C12.5149019,4.01330451 15.8945988,0.902899363 19.9388017,0.898413403 L19.9388017,0 C15.3808826,0.00460468007 11.5918535,3.55201889 11.2351892,8.14860956 C10.4427229,8.31291522 9.74430859,8.78212972 9.28723783,9.45729842 C9.06311487,9.33554736 8.82821763,9.2352863 8.58562009,9.15782729 C8.58562009,9.05001768 8.58562009,8.94220807 8.58562009,8.83140375 C8.58666969,6.54794929 6.83926838,4.65379619 4.58727622,4.49726746 C2.33528406,4.34073873 0.348197884,5.97531962 0.0404936565,8.2374595 C-0.267210571,10.4995994 1.20960847,12.616334 3.41970043,13.0808991 C3.4301971,14.0960095 3.8217592,15.0691276 4.51505302,15.8030918 C3.77453925,16.9481964 3.85194008,18.4464644 4.70641066,19.5072514 C5.56088124,20.5680385 6.99584108,20.9472987 8.2540539,20.4448943 L8.89350298,21.5619217 C7.59870184,22.8000959 7.19463994,24.7186854 7.87812354,26.3832036 C8.56160714,28.0477218 10.1905236,29.1120754 11.9714773,29.0578501 C13.7524309,29.0036248 15.3151188,27.8420954 15.898403,26.1390076 C16.4816873,24.4359197 15.9642892,22.5453862 14.5982177,21.3882284 L15.1903002,20.3490636 C16.4506759,21.0090146 17.9929661,20.7206531 18.9368788,19.6485669 C19.8807916,18.5764807 19.9861332,16.9934796 19.1927778,15.8030918 C19.887344,15.0699617 20.2791202,14.0963114 20.2881303,13.0808991 C22.433694,12.6172438 23.888316,10.591548 23.6608187,8.3841182 C23.4333214,6.17668841 21.5969334,4.49806814 19.402967,4.49206701 Z M18.8108846,17.5190614 C18.8092537,18.7588274 17.8161421,19.7634451 16.5905752,19.7651022 C16.2736253,19.7659231 15.9603538,19.6964093 15.6728474,19.5614545 C15.3984919,19.4372219 15.1533036,19.2555381 14.9534672,19.0283959 C14.3711452,18.3865802 14.2094855,17.4614525 14.5390094,16.6565845 C14.5966658,16.519393 14.6670435,16.3880369 14.7491987,16.2642773 C14.8348893,16.1341228 14.9341378,16.0136448 15.04524,15.9049119 C15.8232658,15.139957 17.0353467,15.0599924 17.9049984,15.7162451 C18.0290569,15.801889 18.1423812,15.902448 18.2424854,16.0157163 C18.3436016,16.1253085 18.4310897,16.2469985 18.5030017,16.3780763 C18.7073146,16.7225638 18.8138411,17.1173408 18.8108846,17.5190614 L18.8108846,17.5190614 Z M10.2256886,17.5190614 C10.2276448,17.052175 10.1265029,16.5907398 9.92964732,16.1684465 C10.5242538,15.684968 10.968316,15.038193 11.2085455,14.3057361 C11.6379966,14.3975451 12.0816758,14.3975451 12.5111269,14.3057361 C12.750281,15.0380201 13.192081,15.6855325 13.7841043,16.1714413 C13.5872487,16.5937345 13.4861068,17.0551697 13.488063,17.5220561 L10.2256886,17.5190614 Z M7.11725553,19.7650949 C5.89236269,19.7618038 4.90019961,18.7581456 4.89694622,17.5190614 C4.89257463,17.1225301 4.99490793,16.7322637 5.19298746,16.3900552 C5.26489938,16.2589773 5.35238751,16.1372874 5.45350376,16.0276951 C5.55426998,15.915105 5.66751067,15.8146202 5.79099077,15.728224 C6.66064244,15.0719713 7.87272338,15.1519359 8.65074916,15.9168908 C8.76267155,16.0248505 8.8619995,16.145425 8.9467904,16.2762561 C9.02894565,16.4000157 9.09932329,16.5313719 9.15697968,16.6685633 C9.52528979,17.5610336 9.28665286,18.591819 8.5648972,19.2260468 C8.34096748,19.4270357 8.07769597,19.5780533 7.79222956,19.6692641 C7.57343463,19.7360659 7.34577572,19.7683883 7.11725553,19.7650949 L7.11725553,19.7650949 Z M4.30486374,5.39047994 C6.18442644,5.3921316 7.70770574,6.93305941 7.70933801,8.83439846 C7.70933801,8.88830327 7.70933801,8.94220807 7.70933801,8.99611287 C7.70184519,9.14577199 7.68503621,9.29480468 7.659011,9.44232486 C7.63223825,9.59165855 7.59463815,9.73879675 7.54651533,9.88254743 C7.10550226,11.2776574 5.84106852,12.2384711 4.39367611,12.2783482 L4.30486374,12.2783482 C4.18416117,12.2788819 4.06353994,12.2718808 3.94369343,12.2573535 C3.79602139,12.2433596 3.64957485,12.2183354 3.50555239,12.1824857 C1.82831212,11.7736474 0.71853413,10.1602808 0.922480552,8.42728249 C1.12642697,6.69428422 2.57961707,5.38956786 4.30486374,5.39047994 L4.30486374,5.39047994 Z M8.42575782,10.053246 C8.58797456,10.1102107 8.7453865,10.1803145 8.89646339,10.2628758 C8.43665224,11.7049906 9.05895228,13.2737293 10.3766696,13.9942861 C10.1999403,14.5478809 9.87389043,15.0405476 9.43525845,15.416774 C8.31278306,14.1436073 6.39052811,14.0106028 5.1071355,15.1173029 C4.62932234,14.5818416 4.34723043,13.8969771 4.30782415,13.1767299 C6.21274393,13.1728105 7.88824027,11.9019338 8.42575782,10.053246 L8.42575782,10.053246 Z M10.0184597,9.96639935 C10.4762068,9.28355811 11.2675713,8.91004003 12.0789393,8.99386851 C12.8903073,9.07769698 13.5906868,9.60533826 13.9025208,10.3676907 C13.9684745,10.526105 14.0151953,10.6920251 14.0416602,10.861818 C14.0645089,10.9832127 14.075417,11.106598 14.0742247,11.2301675 C14.0761008,11.9375697 13.7466667,12.6040713 13.186101,13.0269943 C13.0530232,13.131277 12.9078803,13.2187683 12.7538808,13.2875342 C12.6142492,13.3515963 12.4684024,13.4007752 12.3187001,13.4342751 C12.1654825,13.4634646 12.0098211,13.4775061 11.8539154,13.476201 C11.6976355,13.47605 11.5418203,13.4589828 11.3891306,13.4252909 C11.243449,13.3924383 11.1015641,13.3442607 10.9657917,13.2815448 C10.8117922,13.2127789 10.6666492,13.1252876 10.5335715,13.0210049 C9.97300572,12.5980819 9.64357167,11.9315802 9.64544773,11.2241781 C9.6442554,11.1006085 9.65516348,10.9772233 9.67801227,10.8558286 C9.70447712,10.6860357 9.75119792,10.5201155 9.81715165,10.3617012 C9.87118081,10.2235305 9.93861301,10.0911161 10.0184597,9.96639935 L10.0184597,9.96639935 Z M16.5905752,14.3746144 C15.7088669,14.3756028 14.8688105,14.754254 14.2784932,15.416774 C13.8387734,15.0409354 13.5116733,14.5482311 13.3341216,13.9942861 C14.6518389,13.2737293 15.2741389,11.7049906 14.8143278,10.2628758 C14.9654047,10.1803145 15.1228166,10.1102107 15.2850334,10.053246 C15.8239281,11.8996873 17.4968372,13.1695144 19.4000066,13.1767299 C19.3649151,13.9004048 19.0847748,14.5898364 18.6066161,15.1292817 C18.0456523,14.6415715 17.3302533,14.3737752 16.5905752,14.3746144 Z M20.2052388,12.1824857 C20.0599258,12.2168917 19.9125936,12.2418983 19.7641373,12.2573535 C19.6442908,12.2718808 19.5236696,12.2788819 19.402967,12.2783482 L19.3141547,12.2783482 C17.8667623,12.2384711 16.6023285,11.2776574 16.1613154,9.88254743 C16.1140546,9.73774129 16.0774431,9.58959833 16.0517802,9.43933015 C16.0243878,9.28891086 16.0065886,9.13686491 15.9984928,8.98413403 C15.9984928,8.93022922 15.9984928,8.87632442 15.9984928,8.82241962 C16.0052632,7.02788995 17.3731228,5.53938917 19.1418893,5.40178478 C20.9106559,5.26418039 22.487426,6.52359839 22.7653705,8.29597814 C23.0433151,10.0683579 21.9292652,11.7595848 20.2052388,12.1824857 L20.2052388,12.1824857 Z M11.8539154,28.1502876 C10.4967686,28.1512941 9.26889848,27.336126 8.72979222,26.0762191 C8.19068597,24.8163122 8.44352038,23.3527937 9.37308979,22.3525255 C9.58073058,22.1290404 9.81781906,21.9355598 10.0776679,21.7775409 C11.0931057,21.1400116 12.3655353,21.091074 13.4258944,21.6487683 C13.688238,21.7860077 13.9311868,21.9582437 14.148235,22.1608639 C15.1874442,23.118857 15.537596,24.6245375 15.0295826,25.9507289 C14.5215692,27.2769203 13.2599041,28.1507855 11.8539154,28.1502876 L11.8539154,28.1502876 Z M13.8729167,20.8731381 C12.5314083,20.1507167 10.9122834,20.1996937 9.61584361,21.0019106 L9.02376112,19.9986823 C9.53316275,19.5961822 9.90656456,19.0437157 10.09247,18.4174748 L13.6124004,18.4174748 C13.7715374,18.9592673 14.072223,19.4475936 14.4827616,19.8309785 L13.8729167,20.8731381 Z" id="Shape" fill="#878787"></path>
                </g>
            </g>
        </g>
    </g>
</svg>