<svg height="37" viewBox="0 0 125 37" width="125" xmlns="http://www.w3.org/2000/svg"><g fill="none"><g transform="translate(36.184211 12.108262)"><path d="m7.52611919 14.3097643 4.69197611-14.3097643h-2.91945181l-3.00476044 10.4571355-.16113857.7567663h-.05687244l-.17061731-.7862507-2.98580295-10.4276511h-2.91945178l4.68249733 14.3097643zm8.98584511 0v-14.3097643h-2.767792v14.3097643zm5.5071476 0v-9.64140026l.0568725-.00982813 5.5640201 9.65122839h2.7677919v-14.3097643h-2.7677919v9.63157213l-.0568724.00982814-5.5640202-9.64140027h-2.7677919v14.3097643z" fill="#b40a0f"/><path d="m38.3888951 14.3097643v-12.7864034h4.549795v-1.5233609h-10.9100292v1.5233609h4.4929225v12.7864034zm15.0143235 0v-1.5135328h-6.6351177v-5.1204582h5.6682862v-1.5233609h-5.6682862v-4.6290515h6.5308515v-1.5233609h-8.3981632v14.3097643zm4.075858 0v-6.20155307h3.1943352c.7330225 0 1.3175448.23587524 1.7535668.70762571s.654033 1.09419901.654033 1.86734566v1.3071419c0 .4586463.0347554.9041884.1042662 1.3366263.0695107.432438.2274897.7600425.4739369.9828135h1.9241842v-.2358752c-.2338089-.2227711-.3981071-.511063-.4928945-.8648759-.0947874-.3538128-.1421811-.7534903-.1421811-1.1990324v-1.3464545c0-.84521961-.1658779-1.55448334-.4976338-2.1277912-.3317559-.57330787-.8767834-.98772755-1.6350826-1.24325906.7077459-.3210524 1.2464543-.75349033 1.6161251-1.29731379.3696709-.54382347.5545063-1.18265223.5545063-1.9164863 0-1.32352215-.3981071-2.332544-1.1943212-3.02706552-.7962141-.69452153-1.9494608-1.0417823-3.4597399-1.0417823h-4.7204123v14.29993617zm2.6635258-7.72491397h-2.6635258v-5.06148943h2.8531006c.9541931 0 1.6571996.22113303 2.1090195.6633991s.6777299 1.06635263.6777299 1.87225968c0 .85177169-.2322291 1.48568639-.6966874 1.90174409-.4644582.41605771-1.2243372.62408656-2.2796368.62408656zm9.6872718 7.72491397v-6.20155307h3.1943352c.7330225 0 1.3175448.23587524 1.7535668.70762571s.654033 1.09419901.654033 1.86734566v1.3071419c0 .4586463.0347554.9041884.1042662 1.3366263.0695107.432438.2274897.7600425.473937.9828135h1.9241841v-.2358752c-.2338089-.2227711-.3981071-.511063-.4928945-.8648759-.0947874-.3538128-.1421811-.7534903-.1421811-1.1990324v-1.3464545c0-.84521961-.1658779-1.55448334-.4976338-2.1277912-.3317559-.57330787-.8767834-.98772755-1.6350826-1.24325906.7077459-.3210524 1.2464543-.75349033 1.6161251-1.29731379.3696709-.54382347.5545063-1.18265223.5545063-1.9164863 0-1.32352215-.3981071-2.332544-1.1943212-3.02706552-.7962141-.69452153-1.9494608-1.0417823-3.4597399-1.0417823h-4.7204123v14.29993617zm2.6635258-7.72491397h-2.6635258v-5.06148943h2.8531006c.9541931 0 1.6571996.22113303 2.1090195.6633991s.6777299 1.06635263.6777299 1.87225968c0 .85177169-.2322291 1.48568639-.6966874 1.90174409-.4644582.41605771-1.2243371.62408656-2.2796368.62408656zm16.3223895 7.72491397v-1.5135328h-6.6351177v-5.1204582h5.6682862v-1.5233609h-5.6682862v-4.6290515h6.5308515v-1.5233609h-8.3981632v14.3097643z" fill="#b8860b"/></g><path d="m24.2537088 5.61508377c-2.9617302.00412395-5.3616708 2.43186987-5.3657475 5.42791433-.0074601.1359051-.0074601.2721243 0 .4080294-.3050254.0951881-.6000273.2205745-.8807227.3743389-.6478101-.9733605-1.6912998-1.6034138-2.8456964-1.7182156.4820851-5.09052016 4.7067063-8.9785266 9.7619599-8.98413405v-1.12301675c-5.6973988.00575585-10.4336852 4.44002361-10.8795156 10.185762-.9905829.205382-1.8636008.7919002-2.4349392 1.635861-.2801537-.1521888-.5737753-.2775151-.8770222-.3743389 0-.134762 0-.269524 0-.4080294.001312-2.85431808-2.18293962-5.22200946-4.99792982-5.41767037-2.81499021-.19566092-5.29884792 1.8475652-5.68347821 4.67524007-.38463028 2.8276748 1.46139352 5.4735931 4.22400847 6.0542995.01312084 1.268888.50257346 2.4852856 1.36919074 3.4027408-.92564221 1.4313808-.82889118 3.3042158.23919705 4.6301996 1.06808822 1.3259838 2.86178802 1.8000591 4.43455407 1.1720536l.7993113 1.3962842c-1.6185014 1.5477177-2.12357878 3.9459546-1.26922428 6.0266024.85435448 2.0806477 2.89050008 3.4110897 5.11669218 3.3433081 2.226192-.0677815 4.1795518-1.5196933 4.9086572-3.6485531.7291053-2.1288599.0823577-4.4920268-1.6252317-5.938474l.7401031-1.298956c1.5754697.8249387 3.5033324.4644868 4.6832233-.8756209 1.179891-1.3401077 1.3115679-3.3188591.3198737-4.8068439.8682078-.9164125 1.3579281-2.1334754 1.3691907-3.4027408 2.6819546-.5795692 4.500232-3.1116889 4.2158605-5.8709762-.2843716-2.75928719-2.5798566-4.85756252-5.3223146-4.86506393zm-.7401031 16.28374293c-.0020385 1.5497076-1.2434281 2.8054797-2.7753866 2.807551-.3961875.0010261-.7877768-.085866-1.1471599-.2545596-.3429443-.1552907-.6494297-.3823954-.8992252-.6663233-.7279025-.8022695-.9299772-1.9586792-.5180722-2.9647642.0720705-.1714893.1600425-.3356845.2627366-.490384.1071132-.1626931.2311738-.3132906.3700516-.4492067.9725322-.9561936 2.4876334-1.0561494 3.5746979-.2358335.1550733.1070548.2967286.2327536.4218588.3743389.1263953.1369904.2357555.2891028.3256454.4529501.2553912.4306094.3885493.9240807.3848536 1.4262313zm-10.731495 0c.0024454-.583608-.1239821-1.160402-.3700515-1.6882685.743258-.6043482 1.2983358-1.412817 1.5986227-2.3283881.5368139.1147613 1.0914128.1147613 1.6282268 0 .2989425.915355.8511926 1.7247455 1.5912216 2.3321315-.2460694.5278665-.3724969 1.1046605-.3700515 1.6882685zm-3.88554129 2.8075419c-1.53111605-.0041139-2.7713199-1.2586866-2.77538663-2.8075419-.0054645-.4956641.12245214-.983497.37005155-1.4112577.0898899-.1638474.19925005-.3159598.32564537-.4529501.12595777-.1407376.26750863-.2663436.42185876-.3743389 1.0870646-.8203159 2.60216576-.7203602 3.57469794.2358335.139903.1349496.264063.2856677.3700516.4492067.1026941.1546995.1906661.3188947.2627366.490384.4603876 1.1155877.1620915 2.4040696-.7401031 3.1968543-.2799122.2512361-.6090015.4400082-.96583455.5540216-.27349367.0835023-.55806731.1239052-.84371754.1197885zm-3.51548973-17.96826868c2.34945337.00206458 4.25355249 1.92822434 4.25559284 4.30489818v.202143c-.00936603.1870739-.03037726.3733648-.06290877.557765-.03346594.1866671-.08046606.3705898-.14061959.5502782-.55126634 1.7438874-2.13180851 2.9449046-3.94104902 2.9947509h-.11101546c-.15087822.0006672-.30165475-.0080842-.4514629-.0262433-.18459004-.0174924-.36764821-.0487726-.54767629-.0935847-2.09655034-.511048-3.48377283-2.5277563-3.2288398-4.6940041.25493303-2.16624782 2.07142065-3.79714328 4.22797899-3.79600318zm5.15111762 5.82845758c.2027709.0712059.3995358.1588356.5883819.2620372-.5747639 1.8026435.2031112 3.763567 1.8502578 4.6642629-.2209117.6919935-.628474 1.3078269-1.1767639 1.7781099-1.4030943-1.5914584-3.80591296-1.757714-5.41015372-.3743389-.59726645-.6693266-.94988135-1.5254072-.99913919-2.4257162 2.38114972-.0048993 4.47552014-1.5934951 5.14741711-3.9043549zm1.9908773-.1085583c.5721839-.8535516 1.5613895-1.3204492 2.5755995-1.2156636s1.8896843.7643372 2.2794769 1.7172777c.0824421.1980179.1408431.4054181.1739242.6176593.028561.1517432.0421961.3059749.0407057.4604368.0023451.8842527-.4094475 1.7173797-1.1101547 2.2460335-.1663472.1303534-.3477759.2397175-.5402752.3256749-.1745395.0800776-.356848.1415511-.5439758.1834261-.191522.0364869-.3860988.0540387-.580981.0524074-.1953498-.0001888-.3901188-.0215228-.5809809-.0636376-.182102-.0410659-.3594582-.1012878-.5291737-.1796827-.1924994-.0859573-.3739281-.1953215-.5402753-.3256749-.7007072-.5286537-1.1124997-1.3617808-1.1101546-2.2460335-.0014904-.1544619.0121447-.3086935.0407056-.4604368.0330811-.2122412.0914821-.4196414.1739243-.6176592.0675364-.1727135.1518267-.3382315.251635-.4941274zm8.2151445 5.5102689c-1.1021355.0012354-2.1522059.4745494-2.8901027 1.3026994-.5496496-.4697983-.9585247-1.0856786-1.1804644-1.7781099 1.6471466-.9006959 2.4250217-2.8616194 1.8502577-4.6642629.1888462-.1032016.3856111-.1908313.588382-.2620372.6736185 2.3080517 2.7647547 3.8953355 5.1437166 3.9043549-.0438644.9045937-.3940398 1.7663831-.9917382 2.4406897-.7012047-.6096378-1.5954535-.9443831-2.520051-.943334zm4.5183294-2.7401609c-.1816413.0430074-.3658065.0742656-.5513768.0935847-.1498082.0181591-.3005847.0269105-.4514629.0262433h-.1110155c-1.8092405-.0498463-3.3897827-1.2508635-3.941049-2.9947509-.059076-.1810077-.1048405-.3661864-.1369191-.5540216-.0342404-.1880241-.0564895-.3780816-.0666092-.5689952 0-.067381 0-.134762 0-.202143.0084629-2.24316206 1.7182875-4.10378804 3.9292457-4.27579353 2.2109582-.17200548 4.1819207 1.40226702 4.5293515 3.61774173.3474307 2.2154747-1.0451318 4.3295083-3.2001647 4.8581345zm-10.4391543 19.9597522c-1.6964335.0012582-3.2312711-1.0177018-3.9051539-2.5925855-.6738828-1.5748836-.3578398-3.4042818.8041219-4.6546171.259551-.2793562.5559116-.521207.8807227-.7187307 1.2692973-.7969116 2.8598342-.8580836 4.1852831-.1609657.3279295.1715493.6316155.3868442.9029258.6401195 1.2990115 1.1974914 1.7367012 3.079592 1.1016845 4.7373313-.6350168 1.6577392-2.2120981 2.7500707-3.9695841 2.7494482zm2.5237516-9.0964368c-1.6768854-.9030268-3.7007916-.8418054-5.3213413.1609657l-.7401031-1.2540354c.636752-.5031252 1.1035043-1.1937082 1.3358861-1.9765095h4.3999129c.1989214.6772407.5747784 1.2876486 1.0879516 1.7668797z" fill="#b8860b"/></g></svg>